<svg xmlns="http://www.w3.org/2000/svg" xmlns:xlink="http://www.w3.org/1999/xlink" width="21" height="21" viewBox="0 0 40 40" version="1.1">
<g id="surface1">
<path style=" stroke:none;fill-rule:nonzero;fill:white;fill-opacity:1;" d="M 29.226562 0.117188 C 27.851562 0.335938 26.421875 0.921875 25.296875 1.71875 C 24.65625 2.179688 17.273438 9.382812 17.015625 9.804688 C 16.8125 10.132812 16.84375 10.367188 17.101562 10.632812 C 17.3125 10.835938 17.382812 10.859375 17.867188 10.859375 C 19.007812 10.859375 20.429688 11.117188 21.585938 11.53125 C 22.546875 11.875 22.265625 12.0625 25.390625 8.953125 C 26.914062 7.4375 28.3125 6.101562 28.492188 5.984375 C 30.007812 5.046875 32.03125 5.234375 33.351562 6.4375 C 34.75 7.726562 35.023438 9.976562 33.960938 11.570312 C 33.609375 12.101562 24.773438 20.921875 24.304688 21.210938 C 22.875 22.09375 21.015625 21.992188 19.710938 20.960938 C 18.3125 19.867188 17.429688 19.679688 16.28125 20.226562 C 15.710938 20.507812 15.304688 20.921875 15.03125 21.507812 C 14.84375 21.921875 14.828125 22.039062 14.859375 22.640625 C 14.90625 23.484375 15.132812 23.984375 15.773438 24.59375 C 16.984375 25.765625 18.59375 26.601562 20.320312 26.960938 C 21.023438 27.101562 21.289062 27.117188 22.34375 27.078125 C 24.507812 27 25.796875 26.609375 27.421875 25.523438 C 28.257812 24.96875 37.859375 15.367188 38.382812 14.5625 C 40.273438 11.664062 40.5 8.203125 39.007812 5.203125 C 37.65625 2.46875 35.039062 0.570312 32.03125 0.109375 C 31.140625 -0.0234375 30.117188 -0.015625 29.226562 0.117188 Z M 29.226562 0.117188 "/>
<path style=" stroke:none;fill-rule:nonzero;fill:white;fill-opacity:1;" d="M 16.140625 13.007812 C 14.890625 13.242188 13.695312 13.742188 12.515625 14.507812 C 11.914062 14.890625 2.476562 24.289062 1.859375 25.109375 C 1.304688 25.851562 0.617188 27.226562 0.390625 28.046875 C -0.226562 30.289062 -0.078125 32.429688 0.835938 34.492188 C 1.710938 36.453125 3.546875 38.289062 5.507812 39.164062 C 8 40.273438 10.734375 40.265625 13.25 39.132812 C 14.570312 38.539062 15.023438 38.148438 19.210938 33.953125 C 23.101562 30.054688 23.148438 30.007812 23.09375 29.75 C 23.007812 29.273438 22.796875 29.171875 21.75 29.117188 C 20.554688 29.054688 19.648438 28.890625 18.601562 28.554688 C 18.140625 28.40625 17.679688 28.28125 17.578125 28.28125 C 17.4375 28.28125 16.671875 28.992188 14.578125 31.085938 C 12.882812 32.765625 11.609375 33.96875 11.382812 34.101562 C 10.757812 34.460938 10.117188 34.625 9.335938 34.632812 C 8.203125 34.640625 7.304688 34.273438 6.515625 33.484375 C 5.726562 32.695312 5.367188 31.820312 5.367188 30.664062 C 5.359375 29.820312 5.5625 29.148438 6.007812 28.460938 C 6.40625 27.859375 15.304688 19 15.78125 18.734375 C 15.976562 18.625 16.375 18.460938 16.664062 18.359375 C 17.117188 18.210938 17.320312 18.1875 17.992188 18.21875 C 19.148438 18.273438 19.5 18.421875 20.859375 19.46875 C 21.4375 19.914062 21.804688 20.039062 22.578125 20.039062 C 23.671875 20.03125 24.617188 19.390625 25 18.390625 C 25.234375 17.757812 25.195312 16.921875 24.890625 16.304688 C 24.320312 15.132812 22.109375 13.679688 20.101562 13.148438 C 19.125 12.898438 17.132812 12.828125 16.140625 13.007812 Z M 16.140625 13.007812 "/>
</g>
</svg>
