<svg width="24" height="24" viewBox="0 0 24 24" fill="none" xmlns="http://www.w3.org/2000/svg">
<path d="M8.625 12C8.625 12.0995 8.58549 12.1948 8.51517 12.2652C8.44484 12.3355 8.34946 12.375 8.25 12.375C8.15054 12.375 8.05516 12.3355 7.98484 12.2652C7.91451 12.1948 7.875 12.0995 7.875 12C7.875 11.9005 7.91451 11.8052 7.98484 11.7348C8.05516 11.6645 8.15054 11.625 8.25 11.625C8.34946 11.625 8.44484 11.6645 8.51517 11.7348C8.58549 11.8052 8.625 11.9005 8.625 12ZM8.625 12H8.25M12.375 12C12.375 12.0995 12.3355 12.1948 12.2652 12.2652C12.1948 12.3355 12.0995 12.375 12 12.375C11.9005 12.375 11.8052 12.3355 11.7348 12.2652C11.6645 12.1948 11.625 12.0995 11.625 12C11.625 11.9005 11.6645 11.8052 11.7348 11.7348C11.8052 11.6645 11.9005 11.625 12 11.625C12.0995 11.625 12.1948 11.6645 12.2652 11.7348C12.3355 11.8052 12.375 11.9005 12.375 12ZM12.375 12H12M16.125 12C16.125 12.0995 16.0855 12.1948 16.0152 12.2652C15.9448 12.3355 15.8495 12.375 15.75 12.375C15.6505 12.375 15.5552 12.3355 15.4848 12.2652C15.4145 12.1948 15.375 12.0995 15.375 12C15.375 11.9005 15.4145 11.8052 15.4848 11.7348C15.5552 11.6645 15.6505 11.625 15.75 11.625C15.8495 11.625 15.9448 11.6645 16.0152 11.7348C16.0855 11.8052 16.125 11.9005 16.125 12ZM16.125 12H15.75M21 12C21 16.556 16.97 20.25 12 20.25C11.1372 20.251 10.278 20.1377 9.445 19.913C8.27076 20.7389 6.83833 21.1141 5.41 20.97C5.25119 20.9547 5.09307 20.933 4.936 20.905C5.42887 20.3241 5.76547 19.6272 5.914 18.88C6.004 18.423 5.781 17.979 5.447 17.654C3.93 16.178 3 14.189 3 12C3 7.444 7.03 3.75 12 3.75C16.97 3.75 21 7.444 21 12Z" stroke="black" stroke-width="1.5" stroke-linecap="round" stroke-linejoin="round"/>
</svg>
