<svg width="24" height="24" viewBox="0 0 24 24" fill="none" xmlns="http://www.w3.org/2000/svg">
<path d="M2.25 15.75L7.409 10.591C7.61793 10.3821 7.86597 10.2163 8.13896 10.1033C8.41194 9.99018 8.70452 9.93198 9 9.93198C9.29548 9.93198 9.58806 9.99018 9.86104 10.1033C10.134 10.2163 10.3821 10.3821 10.591 10.591L15.75 15.75M14.25 14.25L15.659 12.841C15.8679 12.6321 16.116 12.4663 16.389 12.3533C16.6619 12.2402 16.9545 12.182 17.25 12.182C17.5455 12.182 17.8381 12.2402 18.111 12.3533C18.384 12.4663 18.6321 12.6321 18.841 12.841L21.75 15.75M3.75 19.5H20.25C20.6478 19.5 21.0294 19.342 21.3107 19.0607C21.592 18.7794 21.75 18.3978 21.75 18V6C21.75 5.60218 21.592 5.22064 21.3107 4.93934C21.0294 4.65804 20.6478 4.5 20.25 4.5H3.75C3.35218 4.5 2.97064 4.65804 2.68934 4.93934C2.40804 5.22064 2.25 5.60218 2.25 6V18C2.25 18.3978 2.40804 18.7794 2.68934 19.0607C2.97064 19.342 3.35218 19.5 3.75 19.5ZM14.25 8.25H14.258V8.258H14.25V8.25ZM14.625 8.25C14.625 8.34946 14.5855 8.44484 14.5152 8.51517C14.4448 8.58549 14.3495 8.625 14.25 8.625C14.1505 8.625 14.0552 8.58549 13.9848 8.51517C13.9145 8.44484 13.875 8.34946 13.875 8.25C13.875 8.15054 13.9145 8.05516 13.9848 7.98484C14.0552 7.91451 14.1505 7.875 14.25 7.875C14.3495 7.875 14.4448 7.91451 14.5152 7.98484C14.5855 8.05516 14.625 8.15054 14.625 8.25Z" stroke="black" stroke-width="1.5" stroke-linecap="round" stroke-linejoin="round"/>
</svg>
