<svg width="168" height="19" viewBox="0 0 168 19" fill="none" xmlns="http://www.w3.org/2000/svg">
<path d="M5.2255 0.545454L9.12891 13.3295H9.27379L13.1772 0.545454H17.8988L12.0096 18H6.39311L0.503906 0.545454H5.2255ZM35.2212 9.27273C35.2212 11.1932 34.8519 12.821 34.1133 14.1562C33.3746 15.4915 32.3746 16.5057 31.1133 17.1989C29.8576 17.892 28.4485 18.2386 26.886 18.2386C25.3178 18.2386 23.9059 17.8892 22.6502 17.1903C21.3945 16.4915 20.3974 15.4773 19.6587 14.1477C18.9258 12.8125 18.5593 11.1875 18.5593 9.27273C18.5593 7.35227 18.9258 5.72443 19.6587 4.3892C20.3974 3.05398 21.3945 2.03977 22.6502 1.34659C23.9059 0.653409 25.3178 0.306818 26.886 0.306818C28.4485 0.306818 29.8576 0.653409 31.1133 1.34659C32.3746 2.03977 33.3746 3.05398 34.1133 4.3892C34.8519 5.72443 35.2212 7.35227 35.2212 9.27273ZM30.9087 9.27273C30.9087 8.13636 30.7468 7.17614 30.4229 6.39205C30.1048 5.60795 29.6445 5.0142 29.0423 4.61079C28.4457 4.20739 27.7269 4.00568 26.886 4.00568C26.0508 4.00568 25.332 4.20739 24.7298 4.61079C24.1275 5.0142 23.6644 5.60795 23.3406 6.39205C23.0224 7.17614 22.8633 8.13636 22.8633 9.27273C22.8633 10.4091 23.0224 11.3693 23.3406 12.1534C23.6644 12.9375 24.1275 13.5312 24.7298 13.9347C25.332 14.3381 26.0508 14.5398 26.886 14.5398C27.7269 14.5398 28.4457 14.3381 29.0423 13.9347C29.6445 13.5312 30.1048 12.9375 30.4229 12.1534C30.7468 11.3693 30.9087 10.4091 30.9087 9.27273ZM36.3164 3.97159V0.545454H51.0692V3.97159H45.7766V18H41.6175V3.97159H36.3164ZM68.8072 9.27273C68.8072 11.1932 68.4379 12.821 67.6992 14.1562C66.9606 15.4915 65.9606 16.5057 64.6992 17.1989C63.4435 17.892 62.0344 18.2386 60.4719 18.2386C58.9038 18.2386 57.4918 17.8892 56.2362 17.1903C54.9805 16.4915 53.9833 15.4773 53.2447 14.1477C52.5117 12.8125 52.1452 11.1875 52.1452 9.27273C52.1452 7.35227 52.5117 5.72443 53.2447 4.3892C53.9833 3.05398 54.9805 2.03977 56.2362 1.34659C57.4918 0.653409 58.9038 0.306818 60.4719 0.306818C62.0344 0.306818 63.4435 0.653409 64.6992 1.34659C65.9606 2.03977 66.9606 3.05398 67.6992 4.3892C68.4379 5.72443 68.8072 7.35227 68.8072 9.27273ZM64.4947 9.27273C64.4947 8.13636 64.3327 7.17614 64.0089 6.39205C63.6907 5.60795 63.2305 5.0142 62.6282 4.61079C62.0316 4.20739 61.3129 4.00568 60.4719 4.00568C59.6367 4.00568 58.918 4.20739 58.3157 4.61079C57.7134 5.0142 57.2504 5.60795 56.9265 6.39205C56.6083 7.17614 56.4492 8.13636 56.4492 9.27273C56.4492 10.4091 56.6083 11.3693 56.9265 12.1534C57.2504 12.9375 57.7134 13.5312 58.3157 13.9347C58.918 14.3381 59.6367 14.5398 60.4719 14.5398C61.3129 14.5398 62.0316 14.3381 62.6282 13.9347C63.2305 13.5312 63.6907 12.9375 64.0089 12.1534C64.3327 11.3693 64.4947 10.4091 64.4947 9.27273ZM82.7248 6.24716C82.6282 5.8892 82.4862 5.57386 82.2987 5.30114C82.1112 5.02273 81.881 4.78693 81.6083 4.59375C81.3356 4.40057 81.0231 4.25568 80.6708 4.15909C80.3185 4.05682 79.9322 4.00568 79.5117 4.00568C78.6651 4.00568 77.9322 4.21023 77.3129 4.61932C76.6992 5.02841 76.2248 5.625 75.8896 6.40909C75.5543 7.1875 75.3867 8.13352 75.3867 9.24716C75.3867 10.3665 75.5487 11.321 75.8725 12.1108C76.1964 12.9006 76.6651 13.5028 77.2788 13.9176C77.8924 14.3324 78.6367 14.5398 79.5117 14.5398C80.2844 14.5398 80.9379 14.4148 81.4719 14.1648C82.0117 13.9091 82.4208 13.5483 82.6992 13.0824C82.9776 12.6165 83.1168 12.0682 83.1168 11.4375L83.9009 11.5312H79.6566V8.45455H87.1822V10.7642C87.1822 12.3267 86.8498 13.6648 86.185 14.7784C85.5259 15.892 84.6168 16.7472 83.4577 17.3438C82.3043 17.9403 80.9776 18.2386 79.4776 18.2386C77.8129 18.2386 76.3498 17.8778 75.0884 17.1562C73.8271 16.4347 72.8441 15.4062 72.1396 14.071C71.435 12.7301 71.0827 11.1392 71.0827 9.2983C71.0827 7.86648 71.2958 6.59659 71.7219 5.48864C72.1481 4.375 72.7418 3.43182 73.5032 2.65909C74.2702 1.88636 75.1566 1.30114 76.1623 0.903408C77.1737 0.505681 78.2617 0.306818 79.4265 0.306818C80.4379 0.306818 81.3782 0.451704 82.2475 0.741477C83.1225 1.03125 83.8952 1.44034 84.5657 1.96875C85.2418 2.49716 85.7901 3.125 86.2106 3.85227C86.631 4.57955 86.8924 5.37784 86.9947 6.24716H82.7248ZM89.6687 18V0.545454H101.839V3.97159H93.8874V7.55114H101.217V10.9858H93.8874V14.5739H101.839V18H89.6687ZM103.91 3.97159V0.545454H118.663V3.97159H113.37V18H109.211V3.97159H103.91ZM120.723 18V0.545454H124.942V7.55114H131.82V0.545454H136.03V18H131.82V10.9858H124.942V18H120.723ZM138.676 18V0.545454H150.847V3.97159H142.895V7.55114H150.225V10.9858H142.895V14.5739H150.847V18H138.676ZM153.489 18V0.545454H160.699C162.006 0.545454 163.134 0.78125 164.083 1.25284C165.037 1.71875 165.773 2.3892 166.29 3.2642C166.807 4.13352 167.066 5.16477 167.066 6.35795C167.066 7.56818 166.801 8.59659 166.273 9.44318C165.745 10.2841 164.995 10.9261 164.023 11.3693C163.051 11.8068 161.901 12.0256 160.571 12.0256H156.012V8.7017H159.787C160.424 8.7017 160.955 8.61932 161.381 8.45455C161.813 8.28409 162.14 8.02841 162.361 7.6875C162.583 7.34091 162.694 6.89773 162.694 6.35795C162.694 5.81818 162.583 5.37216 162.361 5.01989C162.14 4.66193 161.813 4.39489 161.381 4.21875C160.949 4.03693 160.418 3.94602 159.787 3.94602H157.708V18H153.489ZM163.316 10.0227L167.662 18H163.06L158.799 10.0227H163.316Z" fill="white"/>
</svg>
