<svg width="30" height="30" viewBox="0 0 30 30" fill="none" xmlns="http://www.w3.org/2000/svg">
<path d="M14.0229 7.348H19.0149L15.8339 4.165C14.8098 3.14087 13.5341 2.40439 12.1351 2.02961C10.7361 1.65482 9.26309 1.65493 7.86416 2.02992C6.46522 2.40492 5.18965 3.14159 4.16569 4.16587C3.14172 5.19015 2.40545 6.46595 2.03089 7.865M0.984887 17.644V12.652M0.984887 12.652H5.97689M0.984887 12.652L4.16489 15.835C5.189 16.8591 6.46468 17.5956 7.86368 17.9704C9.26267 18.3452 10.7357 18.3451 12.1346 17.9701C13.5336 17.5951 14.8091 16.8584 15.8331 15.8341C16.8571 14.8099 17.5933 13.5341 17.9679 12.135M19.0149 2.356V7.346" stroke="black" stroke-width="1.5" stroke-linecap="round" stroke-linejoin="round"/>
</svg>
